<?xml version="1.0" encoding="utf-8"?>
<!-- Generator: Adobe Illustrator 16.0.0, SVG Export Plug-In . SVG Version: 6.00 Build 0)  -->
<!DOCTYPE svg PUBLIC "-//W3C//DTD SVG 1.1//EN" "http://www.w3.org/Graphics/SVG/1.1/DTD/svg11.dtd">
<svg version="1.1" id="OBJECTS" xmlns="http://www.w3.org/2000/svg" xmlns:xlink="http://www.w3.org/1999/xlink" x="0px" y="0px"
	 width="53.117px" height="56px" viewBox="0 0 53.117 56" enable-background="new 0 0 53.117 56" xml:space="preserve">
<g>
	<g>
		<linearGradient id="SVGID_1_" gradientUnits="userSpaceOnUse" x1="34.1152" y1="8.2021" x2="20.0337" y2="47.4152">
			<stop  offset="0" style="stop-color:#534B78"/>
			<stop  offset="0.2355" style="stop-color:#474066"/>
			<stop  offset="0.7298" style="stop-color:#302B45"/>
			<stop  offset="1" style="stop-color:#272338"/>
		</linearGradient>
		<path fill="url(#SVGID_1_)" d="M50.362,24.366L31.439,5.441c-1.304-1.302-3.036-2.02-4.881-2.02c-1.844,0-3.578,0.718-4.88,2.02
			L2.754,24.366c-2.692,2.691-2.692,7.069,0,9.761l18.925,18.925c1.344,1.344,3.111,2.017,4.88,2.017
			c1.768,0,3.537-0.672,4.881-2.017l18.923-18.925c1.347-1.345,2.02-3.114,2.02-4.88C52.382,27.48,51.709,25.71,50.362,24.366z
			 M48.13,31.892L29.205,50.816c-0.704,0.707-1.646,1.095-2.646,1.095c-1.002,0-1.941-0.388-2.647-1.095L4.988,31.895
			c-1.458-1.462-1.458-3.835,0-5.294L23.911,7.676c0.709-0.707,1.648-1.094,2.647-1.094c1,0,1.94,0.388,2.646,1.094L48.13,26.601
			C49.589,28.06,49.589,30.433,48.13,31.892z"/>
		<linearGradient id="SVGID_2_" gradientUnits="userSpaceOnUse" x1="24.835" y1="38.8779" x2="45.5091" y2="17.2146">
			<stop  offset="0" style="stop-color:#C43AFF"/>
			<stop  offset="0.9812" style="stop-color:#34A5D6"/>
		</linearGradient>
		<path fill="url(#SVGID_2_)" d="M40.434,10.157l0.071,1.615c3.818-0.017,4.276,3.271,3.756,5.921
			c-1.006,5.115-5.7,8.204-13.527,14.815c-3.399,2.872-6.451,7.88-2.814,14.027c1.425-2.912,5.809-6.304,12.603-12.184
			c6.585-5.698,8.82-8.984,9.017-14.431C49.722,14.811,46.351,10.739,40.434,10.157z"/>
		<linearGradient id="SVGID_3_" gradientUnits="userSpaceOnUse" x1="8.8623" y1="44.2515" x2="39.5184" y2="12.1286">
			<stop  offset="0" style="stop-color:#C43AFF"/>
			<stop  offset="0.9812" style="stop-color:#34A5D6"/>
		</linearGradient>
		<path fill="url(#SVGID_3_)" d="M33.241,23.975C22.635,33.17,12.903,38.131,12.093,44.758c-0.666,5.464,3.835,9.144,8.485,7.193
			l1.084,1.083c-7.455,3.941-18.445-2.361-17.118-13.426C5.796,29.163,17.065,22.757,27.99,14.386
			c5.809-4.45,8.445-7.541,6.831-10.384c-0.843-1.488-3.344-1.916-6.05-0.218c-0.679-0.23-1.391-0.354-2.126-0.359
			c4.731-4.062,9.891-2.404,12.088-0.336C42.298,6.438,43.85,14.783,33.241,23.975z"/>
		<g>
			<linearGradient id="SVGID_4_" gradientUnits="userSpaceOnUse" x1="18.292" y1="21.2988" x2="35.4121" y2="28.1469">
				<stop  offset="0" style="stop-color:#FFFFFF"/>
				<stop  offset="1" style="stop-color:#FFFFFF;stop-opacity:0"/>
			</linearGradient>
			<path fill="url(#SVGID_4_)" d="M27.982,44.79c-2.469-5.545,0.931-9.615,3.307-11.623c1.216-1.026,2.336-1.952,3.419-2.847
				c5.918-4.889,9.49-7.84,10.397-12.461c0.258-1.307,0.483-3.749-0.892-5.42c-0.209-0.253-0.441-0.475-0.7-0.666
				c3.346,1.362,5.3,4.317,5.163,8.117c-0.182,5.016-2.137,8.114-8.719,13.811c-1.173,1.015-2.273,1.955-3.299,2.832
				C32.552,40.043,29.596,42.569,27.982,44.79z"/>
			<linearGradient id="SVGID_5_" gradientUnits="userSpaceOnUse" x1="-14.6631" y1="19.0044" x2="16.4574" y2="25.7697">
				<stop  offset="0" style="stop-color:#FFFFFF"/>
				<stop  offset="1" style="stop-color:#FFFFFF;stop-opacity:0"/>
			</linearGradient>
			<path fill="url(#SVGID_5_)" d="M16.807,53.352c-3.168,0-6.365-1.472-8.554-3.938c-2.282-2.573-3.296-6.019-2.854-9.704
				c1.003-8.371,8.775-14.068,17.772-20.665c1.747-1.281,3.554-2.605,5.342-3.976c5.844-4.477,9.062-7.961,7.058-11.494
				c-0.609-1.078-1.848-1.729-3.322-1.752c0.236-0.021,0.475-0.031,0.714-0.031c2.312,0,4.193,0.993,5.18,1.922
				c1.577,1.482,2.452,3.768,2.402,6.273c-0.061,3.026-1.476,7.795-7.868,13.335c-3.109,2.696-6.192,5.063-8.911,7.151
				c-6.656,5.111-11.913,9.148-12.528,14.179c-0.303,2.48,0.343,4.762,1.818,6.428c1.181,1.334,2.766,2.119,4.504,2.243
				C17.311,53.343,17.06,53.352,16.807,53.352z"/>
			<g>
				<linearGradient id="SVGID_6_" gradientUnits="userSpaceOnUse" x1="65.96" y1="30.1255" x2="45.1313" y2="28.8543">
					<stop  offset="0" style="stop-color:#FFFFFF"/>
					<stop  offset="1" style="stop-color:#FFFFFF;stop-opacity:0"/>
				</linearGradient>
				<path fill="url(#SVGID_6_)" d="M27.982,44.79c-2.469-5.545,0.931-9.615,3.307-11.623c1.216-1.026,2.336-1.952,3.419-2.847
					c5.918-4.889,9.49-7.84,10.397-12.461c0.258-1.307,0.483-3.749-0.892-5.42c-0.209-0.253-0.441-0.475-0.7-0.666
					c3.346,1.362,5.3,4.317,5.163,8.117c-0.182,5.016-2.137,8.114-8.719,13.811c-1.173,1.015-2.273,1.955-3.299,2.832
					C32.552,40.043,29.596,42.569,27.982,44.79z"/>
				<linearGradient id="SVGID_7_" gradientUnits="userSpaceOnUse" x1="54.8857" y1="34.6362" x2="31.5129" y2="29.1597">
					<stop  offset="0" style="stop-color:#FFFFFF"/>
					<stop  offset="1" style="stop-color:#FFFFFF;stop-opacity:0"/>
				</linearGradient>
				<path fill="url(#SVGID_7_)" d="M16.807,53.352c-3.168,0-6.365-1.472-8.554-3.938c-2.282-2.573-3.296-6.019-2.854-9.704
					c1.003-8.371,8.775-14.068,17.772-20.665c1.747-1.281,3.554-2.605,5.342-3.976c5.844-4.477,9.062-7.961,7.058-11.494
					c-0.609-1.078-1.848-1.729-3.322-1.752c0.236-0.021,0.475-0.031,0.714-0.031c2.312,0,4.193,0.993,5.18,1.922
					c1.577,1.482,2.452,3.768,2.402,6.273c-0.061,3.026-1.476,7.795-7.868,13.335c-3.109,2.696-6.192,5.063-8.911,7.151
					c-6.656,5.111-11.913,9.148-12.528,14.179c-0.303,2.48,0.343,4.762,1.818,6.428c1.181,1.334,2.766,2.119,4.504,2.243
					C17.311,53.343,17.06,53.352,16.807,53.352z"/>
			</g>
		</g>
	</g>
	<g>
		<linearGradient id="SVGID_8_" gradientUnits="userSpaceOnUse" x1="-18.958" y1="16.3491" x2="7.045" y2="23.7166">
			<stop  offset="0" style="stop-color:#FFFFFF"/>
			<stop  offset="1" style="stop-color:#FFFFFF;stop-opacity:0"/>
		</linearGradient>
		<path fill="url(#SVGID_8_)" d="M49.874,24.854L30.952,5.93c-1.175-1.172-2.735-1.818-4.393-1.818
			c-1.661,0-3.221,0.646-4.393,1.817L3.242,24.854c-1.171,1.172-1.816,2.731-1.816,4.393c0,1.661,0.646,3.221,1.816,4.392
			l18.925,18.925c1.17,1.17,2.729,1.814,4.393,1.814c1.662,0,3.222-0.644,4.392-1.814l18.923-18.925
			c1.172-1.169,1.816-2.729,1.816-4.392S51.046,26.023,49.874,24.854z M48.618,32.38L29.694,51.305
			c-0.833,0.836-1.946,1.297-3.135,1.297c-1.187,0-2.301-0.46-3.137-1.297L4.5,32.383c-1.727-1.73-1.727-4.543,0-6.271L23.424,7.187
			c0.838-0.836,1.952-1.296,3.136-1.296c1.185,0,2.297,0.46,3.134,1.297l18.925,18.925c0.836,0.836,1.296,1.949,1.296,3.134
			C49.914,30.431,49.454,31.544,48.618,32.38z"/>
		<linearGradient id="SVGID_9_" gradientUnits="userSpaceOnUse" x1="71.0225" y1="35.3867" x2="47.4149" y2="32.126">
			<stop  offset="0" style="stop-color:#FFFFFF"/>
			<stop  offset="1" style="stop-color:#FFFFFF;stop-opacity:0"/>
		</linearGradient>
		<path fill="url(#SVGID_9_)" d="M49.874,24.854L30.952,5.93c-1.175-1.172-2.735-1.818-4.393-1.818
			c-1.661,0-3.221,0.646-4.393,1.817L3.242,24.854c-1.171,1.172-1.816,2.731-1.816,4.393c0,1.661,0.646,3.221,1.816,4.392
			l18.925,18.925c1.17,1.17,2.729,1.814,4.393,1.814c1.662,0,3.222-0.644,4.392-1.814l18.923-18.925
			c1.172-1.169,1.816-2.729,1.816-4.392S51.046,26.023,49.874,24.854z M48.618,32.38L29.694,51.305
			c-0.833,0.836-1.946,1.297-3.135,1.297c-1.187,0-2.301-0.46-3.137-1.297L4.5,32.383c-1.727-1.73-1.727-4.543,0-6.271L23.424,7.187
			c0.838-0.836,1.952-1.296,3.136-1.296c1.185,0,2.297,0.46,3.134,1.297l18.925,18.925c0.836,0.836,1.296,1.949,1.296,3.134
			C49.914,30.431,49.454,31.544,48.618,32.38z"/>
	</g>
</g>
</svg>
